<svg width="87" height="84" viewBox="0 0 87 84" fill="none" xmlns="http://www.w3.org/2000/svg">
    <path d="M43.4608 83.5558C28.7735 83.5558 15.4588 74.8395 9.55647 61.319L8.66425 59.3287H78.3259L77.4337 61.319C71.5313 74.8395 58.2167 83.5558 43.4608 83.5558ZM13.1253 62.2112C18.9591 73.5355 30.6265 80.7419 43.5294 80.7419C56.4322 80.7419 68.0311 73.5355 73.9334 62.2112H13.1253Z" fill="#FFD366"/>
    <path d="M43.4608 70.7903C37.9702 70.7903 33.5091 66.3292 33.5091 60.8387V59.3974H53.4124V60.8387C53.4811 66.2606 48.9513 70.7903 43.4608 70.7903ZM36.5289 62.2113C37.2152 65.437 40.0978 67.9078 43.5294 67.9078C46.961 67.9078 49.8435 65.437 50.5299 62.2113H36.5289Z" fill="#FFD366"/>
    <path d="M80.5221 3.80531H6.46802C5.71307 3.80531 5.02675 3.18762 5.02675 2.36404C5.02675 1.60908 5.71307 0.991394 6.46802 0.991394H80.5221C81.2771 0.991394 81.9634 1.60908 81.9634 2.43267C81.9634 3.18762 81.2771 3.80531 80.5221 3.80531Z" fill="white"/>
    <path d="M50.5985 30.915H36.3917C35.6367 30.915 34.9504 30.2973 34.9504 29.4737V26.6598C34.9504 24.3263 36.8721 22.4046 39.2056 22.4046H47.716C50.0495 22.4046 51.9712 24.3263 51.9712 26.6598V29.4737C52.0398 30.2287 51.4221 30.915 50.5985 30.915ZM37.7643 28.0324H49.1572V26.5912C49.1572 25.8362 48.5395 25.1499 47.716 25.1499H39.2056C38.4506 25.1499 37.7643 25.7676 37.7643 26.5912V28.0324Z" fill="white"/>
    <path d="M54.8537 36.6115H32.0678C31.3129 36.6115 30.6265 35.9938 30.6265 35.1702V32.3563C30.6265 30.0228 32.5482 28.1011 34.8817 28.1011H51.9711C54.3046 28.1011 56.2263 30.0228 56.2263 32.3563V35.1702C56.295 35.9252 55.6773 36.6115 54.8537 36.6115ZM33.5091 33.729H53.4124V32.2877C53.4124 31.5327 52.7947 30.8464 51.9711 30.8464H34.9504C34.1954 30.8464 33.5091 31.4641 33.5091 32.2877V33.729Z" fill="white"/>
    <path d="M84.7773 62.2113H2.21283C1.45787 62.2113 0.771551 61.5936 0.771551 60.77C0.771551 45.8768 12.9194 33.7289 27.8126 33.7289H59.1089C74.0021 33.7289 86.15 45.8768 86.15 60.77C86.2186 61.5936 85.6009 62.2113 84.7773 62.2113ZM3.6541 59.3974H83.336C82.5811 46.7004 72.0117 36.6115 59.1775 36.6115H27.8126C14.9784 36.6115 4.40906 46.7004 3.6541 59.3974Z" fill="white"/>
    <path d="M46.3433 25.2185H40.6468C39.8919 25.2185 39.2056 24.6009 39.2056 23.7773V2.43267C39.2056 1.60908 39.8233 0.991394 40.6468 0.991394H46.3433C47.0983 0.991394 47.7846 1.60908 47.7846 2.43267V23.7773C47.7846 24.5322 47.0983 25.2185 46.3433 25.2185ZM42.0881 22.336H44.9707V3.80531H42.0881V22.336Z" fill="white"/>
</svg>
