<svg width="93" height="85" viewBox="0 0 93 85" fill="none" xmlns="http://www.w3.org/2000/svg">
    <path d="M21.4324 84.4526C20.6151 84.4526 19.9375 83.7751 19.9375 82.9582V40.6156C19.9375 39.7986 20.6151 39.1211 21.4324 39.1211H26.515V33.6415C26.515 32.8245 27.1927 32.147 28.0099 32.147H40.9657C41.7829 32.147 42.4606 32.8245 42.4606 33.6415V39.1211H47.2443C48.0615 39.1211 48.7392 39.7986 48.7392 40.6156C48.7392 41.4325 48.0615 42.11 47.2443 42.11H40.9657C40.1485 42.11 39.4708 41.4325 39.4708 40.6156V35.1359H29.5048V40.6156C29.5048 41.4325 28.8271 42.11 28.0099 42.11H22.9273V82.9582C22.9273 83.7951 22.2496 84.4526 21.4324 84.4526Z" fill="#FAF9F9"/>
    <path d="M31.498 49.881H22.3293C21.5121 49.881 20.8344 49.2036 20.8344 48.3866C20.8344 47.5696 21.5121 46.8922 22.3293 46.8922H31.498C32.3152 46.8922 32.9929 47.5696 32.9929 48.3866C32.9929 49.2036 32.3152 49.881 31.498 49.881Z" fill="#FAF9F9"/>
    <path d="M39.6701 49.881H38.2749C37.4577 49.881 36.78 49.2036 36.78 48.3866C36.78 47.5696 37.4577 46.8922 38.2749 46.8922H39.6701C40.4873 46.8922 41.165 47.5696 41.165 48.3866C41.165 49.2036 40.4873 49.881 39.6701 49.881Z" fill="#FFD366"/>
    <path d="M31.498 57.8514H22.3293C21.5121 57.8514 20.8344 57.1739 20.8344 56.3569C20.8344 55.54 21.5121 54.8625 22.3293 54.8625H31.498C32.3152 54.8625 32.9929 55.54 32.9929 56.3569C32.9929 57.1938 32.3152 57.8514 31.498 57.8514Z" fill="#FAF9F9"/>
    <path d="M39.6701 57.8514H38.2749C37.4577 57.8514 36.78 57.1739 36.78 56.3569C36.78 55.54 37.4577 54.8625 38.2749 54.8625H39.6701C40.4873 54.8625 41.165 55.54 41.165 56.3569C41.165 57.1938 40.4873 57.8514 39.6701 57.8514Z" fill="#FFD366"/>
    <path d="M8.87517 84.4526C8.05795 84.4526 7.38026 83.7751 7.38026 82.9581V64.427C7.38026 63.6101 8.03802 62.9326 8.85523 62.9326L22.3094 62.8329H31.498C32.3152 62.8329 32.9929 63.5104 32.9929 64.3274C32.9929 65.1444 32.3152 65.8218 31.498 65.8218H22.3293L10.3701 65.9015V82.9581C10.3701 83.795 9.69238 84.4526 8.87517 84.4526Z" fill="#FAF9F9"/>
    <path d="M39.6701 65.8218H38.2749C37.4577 65.8218 36.78 65.1444 36.78 64.3274C36.78 63.5104 37.4577 62.8329 38.2749 62.8329H39.6701C40.4873 62.8329 41.165 63.5104 41.165 64.3274C41.165 65.1643 40.4873 65.8218 39.6701 65.8218Z" fill="#FFD366"/>
    <path d="M31.498 73.7922H22.3293C21.5121 73.7922 20.8344 73.1147 20.8344 72.2977C20.8344 71.4808 21.5121 70.8033 22.3293 70.8033H31.498C32.3152 70.8033 32.9929 71.4808 32.9929 72.2977C32.9929 73.1346 32.3152 73.7922 31.498 73.7922Z" fill="#FAF9F9"/>
    <path d="M39.6701 73.7922H38.2749C37.4577 73.7922 36.78 73.1147 36.78 72.2977C36.78 71.4808 37.4577 70.8033 38.2749 70.8033H39.6701C40.4873 70.8033 41.165 71.4808 41.165 72.2977C41.165 73.1346 40.4873 73.7922 39.6701 73.7922Z" fill="#FFD366"/>
    <path d="M74.7505 84.4525C73.9333 84.4525 73.2556 83.775 73.2556 82.9581V22.7619L50.274 5.4263V82.9182C50.274 83.7352 49.5963 84.4127 48.7791 84.4127C47.9619 84.4127 47.2842 83.7352 47.2842 82.9182V2.41748C47.2842 1.85956 47.6031 1.34148 48.1213 1.08244C48.6196 0.823407 49.2375 0.883185 49.6959 1.22193L75.6474 20.829C76.0261 21.108 76.2454 21.5464 76.2454 22.0246V82.978C76.2454 83.795 75.5677 84.4525 74.7505 84.4525Z" fill="#FAF9F9"/>
    <path d="M64.1865 28.1618H55.0178C54.2006 28.1618 53.5229 27.4843 53.5229 26.6674C53.5229 25.8504 54.2006 25.1729 55.0178 25.1729H64.1865C65.0037 25.1729 65.6814 25.8504 65.6814 26.6674C65.6814 27.5042 65.0037 28.1618 64.1865 28.1618Z" fill="#FFD366"/>
    <path d="M64.1865 37.1285H55.0178C54.2006 37.1285 53.5229 36.451 53.5229 35.634C53.5229 34.8171 54.2006 34.1396 55.0178 34.1396H64.1865C65.0037 34.1396 65.6814 34.8171 65.6814 35.634C65.6814 36.451 65.0037 37.1285 64.1865 37.1285Z" fill="#FFD366"/>
    <path d="M64.1865 46.0951H55.0178C54.2006 46.0951 53.5229 45.4177 53.5229 44.6007C53.5229 43.7837 54.2006 43.1063 55.0178 43.1063H64.1865C65.0037 43.1063 65.6814 43.7837 65.6814 44.6007C65.6814 45.4177 65.0037 46.0951 64.1865 46.0951Z" fill="#FFD366"/>
    <path d="M64.1865 55.0618H55.0178C54.2006 55.0618 53.5229 54.3843 53.5229 53.5674C53.5229 52.7504 54.2006 52.0729 55.0178 52.0729H64.1865C65.0037 52.0729 65.6814 52.7504 65.6814 53.5674C65.6814 54.4043 65.0037 55.0618 64.1865 55.0618Z" fill="#FFD366"/>
    <path d="M64.1865 64.0285H55.0178C54.2006 64.0285 53.5229 63.351 53.5229 62.5341C53.5229 61.7171 54.2006 61.0396 55.0178 61.0396H64.1865C65.0037 61.0396 65.6814 61.7171 65.6814 62.5341C65.6814 63.371 65.0037 64.0285 64.1865 64.0285Z" fill="#FFD366"/>
    <path d="M64.1865 72.995H55.0178C54.2006 72.995 53.5229 72.3176 53.5229 71.5006C53.5229 70.6836 54.2006 70.0062 55.0178 70.0062H64.1865C65.0037 70.0062 65.6814 70.6836 65.6814 71.5006C65.6814 72.3375 65.0037 72.995 64.1865 72.995Z" fill="#FFD366"/>
    <path d="M90.6961 84.7514H1.99861C1.1814 84.7514 0.503708 84.0739 0.503708 83.257C0.503708 82.44 1.1814 81.7625 1.99861 81.7625H90.6961C91.5133 81.7625 92.191 82.44 92.191 83.257C92.191 84.0938 91.5133 84.7514 90.6961 84.7514Z" fill="#FAF9F9"/>
    <path d="M84.8162 84.4525C83.9989 84.4525 83.3213 83.775 83.3213 82.9581V56.6558H74.7505C73.9333 56.6558 73.2556 55.9783 73.2556 55.1614C73.2556 54.3444 73.9333 53.6669 74.7505 53.6669H84.8162C85.6334 53.6669 86.3111 54.3444 86.3111 55.1614V82.9581C86.3111 83.7949 85.6334 84.4525 84.8162 84.4525Z" fill="#FAF9F9"/>
</svg>
