<svg width="90" height="65" viewBox="0 0 90 65" fill="none" xmlns="http://www.w3.org/2000/svg">
    <path d="M88.0863 57.5144H79.1824V54.5251H86.6081V40.0508L73.9132 20.2098H59.8792V54.5251H64.3311V57.5144H58.401C57.5836 57.5144 56.9228 56.8501 56.9228 56.0285V18.7239C56.9228 17.9023 57.5836 17.238 58.401 17.238H74.7305C75.2348 17.238 75.7044 17.5002 75.9826 17.9198L89.3384 38.8096C89.4949 39.0544 89.5819 39.334 89.5819 39.6137V56.0285C89.5645 56.8501 88.9037 57.5144 88.0863 57.5144Z" fill="#FAF9F9"/>
    <path d="M86.5907 39.6138H64.3311C63.5137 39.6138 62.8529 38.9495 62.8529 38.1279V24.7024C62.8529 23.8808 63.5137 23.2165 64.3311 23.2165H77.6869V26.2058H65.8093V36.642H86.5907V39.6138Z" fill="#FAF9F9"/>
    <path d="M58.401 57.5139H28.7156V54.5246H56.9054V9.77312H3.49962V54.5246H13.8817V57.5139H2.00404C1.1867 57.5139 0.525864 56.8496 0.525864 56.028V8.28723C0.525864 7.46562 1.1867 6.80134 2.00404 6.80134H58.401C59.2183 6.80134 59.8792 7.46562 59.8792 8.28723V56.028C59.8792 56.8496 59.2183 57.5139 58.401 57.5139Z" fill="#FAF9F9"/>
    <path d="M10.9072 48.564H2.00404V51.5531H10.9072V48.564Z" fill="#FAF9F9"/>
    <path d="M56.9228 48.564H31.6894V51.5533H56.9228V48.564Z" fill="#FAF9F9"/>
    <path d="M88.0685 48.564H82.1389V51.5531H88.0685V48.564Z" fill="#FFD366"/>
    <path d="M58.4005 12.7619H6.45551V15.7512H58.4005V12.7619Z" fill="#FAF9F9"/>
    <path d="M27.237 0.823273H6.45551V3.81253H27.237V0.823273Z" fill="#FAF9F9"/>
    <path d="M3.49939 0.823273H0.525864V3.8123H3.49939V0.823273Z" fill="#FAF9F9"/>
    <path d="M21.3073 64.9613C16.4033 64.9613 12.4035 60.9406 12.4035 56.011C12.4035 51.0813 16.4033 47.0607 21.3073 47.0607C26.2114 47.0607 30.2112 51.0813 30.2112 56.011C30.2112 60.9406 26.2114 64.9613 21.3073 64.9613ZM21.3073 50.0499C18.0379 50.0499 15.3772 52.7245 15.3772 56.011C15.3772 59.2974 18.0379 61.972 21.3073 61.972C24.5767 61.972 27.2374 59.2974 27.2374 56.011C27.2374 52.7245 24.5767 50.0499 21.3073 50.0499Z" fill="#FFD366"/>
    <path d="M71.7568 64.9613C66.8527 64.9613 62.8529 60.9406 62.8529 56.011C62.8529 51.0813 66.8527 47.0607 71.7568 47.0607C76.6609 47.0607 80.6606 51.0813 80.6606 56.011C80.6606 60.9406 76.6609 64.9613 71.7568 64.9613ZM71.7568 50.0499C68.4874 50.0499 65.8267 52.7245 65.8267 56.011C65.8267 59.2974 68.4874 61.972 71.7568 61.972C75.0262 61.972 77.6869 59.2974 77.6869 56.011C77.6869 52.7245 75.0262 50.0499 71.7568 50.0499Z" fill="#FFD366"/>
    <path d="M22.7853 54.5251H19.8118V57.5141H22.7853V54.5251Z" fill="#FFD366"/>
    <path d="M73.2521 54.5251H70.2786V57.5141H73.2521V54.5251Z" fill="#FFD366"/>
</svg>
