<svg width="99" height="87" viewBox="0 0 99 87" fill="none" xmlns="http://www.w3.org/2000/svg">
    <path d="M93.0708 10.5968C93.0708 3.85399 83.5806 1.56317 71.8804 1.56317C60.1801 1.56317 53.8533 7.00928 53.8533 13.7953C53.8533 16.4319 60.1368 26.0274 71.8804 26.0274C83.5806 25.9842 93.0708 22.7857 93.0708 10.5968Z" stroke="#FFD366" stroke-width="2.8" stroke-miterlimit="10"/>
    <path d="M5.23227 10.5968C5.23227 3.85399 14.7225 1.56317 26.4661 1.56317C38.1663 1.56317 44.4931 7.00928 44.4931 13.7953C44.4498 16.4319 38.1663 25.9842 26.4661 25.9842C14.7225 25.9842 5.23227 22.7857 5.23227 10.5968Z" stroke="#FFD366" stroke-width="2.8" stroke-miterlimit="10"/>
    <path d="M56.3667 7.05263C56.3667 7.05263 53.16 5.28049 49.1732 5.15082C45.1431 5.28049 41.9797 7.05263 41.9797 7.05263" stroke="#FFD366" stroke-width="2.8" stroke-miterlimit="10"/>
    <path d="M54.3733 10.6833C54.3733 10.6833 53.0733 8.86789 49.1732 9.12723C45.2731 8.86789 43.9731 10.6833 43.9731 10.6833" stroke="#FFD366" stroke-width="2.8" stroke-miterlimit="10"/>
    <path d="M92.9408 9.2569H96.6242V15.9133H92.3341" stroke="#FAF9F9" stroke-width="2.8" stroke-miterlimit="10" stroke-linecap="round" stroke-linejoin="round"/>
    <path d="M1.68014 13.0607C1.68014 13.0607 1.63681 13.6659 1.59348 14.7897" stroke="#FAF9F9" stroke-width="2.8" stroke-miterlimit="10" stroke-linecap="round"/>
    <path d="M1.54888 18.2474C1.41888 35.3637 3.62893 88.8739 37.6897 84.5516C78.3372 79.408 7.52902 40.853 44.4498 40.853C69.9737 40.853 51.73 65.4902 78.1639 65.4902C99.2677 65.4902 96.9709 38.1732 96.6243 19.328" stroke="#FAF9F9" stroke-width="2.8" stroke-miterlimit="10" stroke-linecap="round" stroke-dasharray="7.98 7.98"/>
    <path d="M96.6243 17.6423C96.6243 17.0372 96.6243 16.4753 96.6243 15.9134" stroke="#FAF9F9" stroke-width="2.8" stroke-miterlimit="10" stroke-linecap="round"/>
    <path d="M34.3529 12.7148C23.7794 11.3749 13.8558 10.2078 9.04572 9.64594" stroke="#FAF9F9" stroke-width="2.8" stroke-miterlimit="10" stroke-linecap="round" stroke-linejoin="round"/>
    <path d="M10.9091 16.1725C12.9458 16.3454 15.2859 16.648 18.2326 16.9506" stroke="#FAF9F9" stroke-width="2.8" stroke-miterlimit="10" stroke-linecap="round" stroke-linejoin="round"/>
    <path d="M5.36228 9.2569H1.67886V13.0605V15.9133H5.96896" stroke="#FAF9F9" stroke-width="2.8" stroke-miterlimit="10" stroke-linecap="round" stroke-linejoin="round"/>
    <path d="M69.4536 21.9213C69.4536 21.9213 67.5903 21.7484 64.5135 21.4459" stroke="#FAF9F9" stroke-width="2.8" stroke-miterlimit="10" stroke-linecap="round" stroke-linejoin="round"/>
    <path d="M77.6006 25.6816C81.284 33.0295 84.8374 43.5327 85.0541 45.6506C85.4007 48.8492 78.8573 45.8235 78.2939 45.6506C77.9039 45.521 73.2671 32.7269 70.8838 25.9841" stroke="#FFD366" stroke-width="2.8" stroke-miterlimit="10" stroke-linecap="round" stroke-linejoin="round"/>
    <path d="M69.4971 17.6855C70.8838 17.9448 71.8371 18.2042 72.2705 18.3771C73.3105 18.8093 74.5238 20.3221 75.7805 22.3968" stroke="#FAF9F9" stroke-width="2.8" stroke-miterlimit="10" stroke-linecap="round" stroke-linejoin="round"/>
    <path d="M58.7935 12.931C74.2638 10.9859 88.7808 9.30023 88.7808 9.30023" stroke="#FAF9F9" stroke-width="2.8" stroke-miterlimit="10" stroke-linecap="round" stroke-linejoin="round"/>
    <path d="M44.2332 14.7894C47.3099 14.3572 50.5166 13.9682 53.7667 13.5359" stroke="#FAF9F9" stroke-width="2.8" stroke-miterlimit="10" stroke-linecap="round" stroke-linejoin="round"/>
    <path d="M19.3159 21.7484C20.4426 20.0195 21.526 18.766 22.436 18.377C23.866 17.7719 30.9295 16.6481 39.943 15.3946" stroke="#FAF9F9" stroke-width="2.8" stroke-miterlimit="10" stroke-linecap="round" stroke-linejoin="round"/>
    <path d="M23.866 25.941C21.4393 32.6838 16.8025 45.5211 16.4125 45.6508C15.8925 45.8237 9.3057 48.8493 9.65237 45.6508C9.91238 43.4896 13.5958 32.5542 17.3659 25.163" stroke="#FFD366" stroke-width="2.8" stroke-miterlimit="10" stroke-linecap="round" stroke-linejoin="round"/>
    <path d="M34.4829 21.0136C28.9361 21.5323 25.296 21.8781 25.296 21.8781" stroke="#FAF9F9" stroke-width="2.8" stroke-miterlimit="10" stroke-linecap="round" stroke-linejoin="round"/>
    <path d="M56.5401 18.8957C50.8633 19.4576 45.1865 19.9763 40.2464 20.4517" stroke="#FAF9F9" stroke-width="2.8" stroke-miterlimit="10" stroke-linecap="round" stroke-linejoin="round"/>
    <path d="M88.7808 15.9133C88.3474 15.9133 75.4772 17.1235 61.4369 18.4634" stroke="#FAF9F9" stroke-width="2.8" stroke-miterlimit="10" stroke-linecap="round" stroke-linejoin="round"/>
    <path d="M93.0708 9.2569V15.9133" stroke="#FAF9F9" stroke-width="2.8" stroke-miterlimit="10" stroke-linecap="round" stroke-linejoin="round"/>
</svg>
