<svg width="139" height="124" viewBox="0 0 139 124" fill="none" xmlns="http://www.w3.org/2000/svg">
<g filter="url(#filter0_d)">
<path fill-rule="evenodd" clip-rule="evenodd" d="M108.295 26.2328C108.138 25.9415 107.919 25.6913 107.682 25.4601L103.546 21.4127C101.621 19.5291 99.0548 19.5291 97.1299 21.4127L61.9583 58.8547C60.1881 60.7392 57.2732 60.9633 55.2358 59.3715L42.3512 49.3054C40.4264 47.4218 37.8599 47.4218 35.935 49.3054L31.4437 53.7005C29.5188 55.584 29.5188 58.0955 31.4437 59.9791L55.6249 82.7442C56.2665 83.3721 57.5497 84 58.833 84C60.1162 84 61.3995 83.3721 62.0411 82.7442L108.038 32.0864C109.228 30.921 109.314 28.1335 108.295 26.2328Z" fill="#3EA89A"/>
</g>
<defs>
<filter id="filter0_d" x="0" y="0" width="139" height="124" filterUnits="userSpaceOnUse" color-interpolation-filters="sRGB">
<feFlood flood-opacity="0" result="BackgroundImageFix"/>
<feColorMatrix in="SourceAlpha" type="matrix" values="0 0 0 0 0 0 0 0 0 0 0 0 0 0 0 0 0 0 127 0"/>
<feOffset dy="10"/>
<feGaussianBlur stdDeviation="15"/>
<feColorMatrix type="matrix" values="0 0 0 0 0.243137 0 0 0 0 0.658824 0 0 0 0 0.603922 0 0 0 0.5 0"/>
<feBlend mode="normal" in2="BackgroundImageFix" result="effect1_dropShadow"/>
<feBlend mode="normal" in="SourceGraphic" in2="effect1_dropShadow" result="shape"/>
</filter>
</defs>
</svg>
