<svg width="17" height="16" viewBox="0 0 17 16" fill="none" xmlns="http://www.w3.org/2000/svg">
<path d="M14.4828 9.85938V13.6904H2.31724V9.85938H0V14.8735C0 15.4932 0.521379 16.0002 1.15862 16.0002H15.6414C16.2786 16.0002 16.8 15.4932 16.8 14.8735V9.85938H14.4828Z" fill="#3EA89A"/>
<path d="M8.16824 10.3662L4.80824 6.42254C4.80824 6.42254 4.28686 5.97183 4.86617 5.97183C5.44548 5.97183 6.71997 5.97183 6.71997 5.97183C6.71997 5.97183 6.71997 5.6338 6.71997 5.1831C6.71997 3.83099 6.71997 1.29577 6.71997 0.28169C6.71997 0.28169 6.66203 0 7.06755 0C7.531 0 9.38479 0 9.73238 0C10.022 0 10.022 0.225352 10.022 0.225352C10.022 1.23944 10.022 3.83099 10.022 5.12676C10.022 5.57747 10.022 5.85915 10.022 5.85915C10.022 5.85915 11.0648 5.85915 11.76 5.85915C12.4551 5.85915 11.9338 6.3662 11.9338 6.3662C11.9338 6.3662 9.09514 10.0282 8.68962 10.4225C8.4579 10.7042 8.16824 10.3662 8.16824 10.3662Z" fill="#3EA89A"/>
</svg>
