<svg width="23" height="19" viewBox="0 0 23 19" fill="none" xmlns="http://www.w3.org/2000/svg">
<path d="M21.6938 1H1.35131C1.15725 1 1 1.12473 1 1.2798V17.5216C1 17.6766 1.15725 17.8013 1.35131 17.8013H21.6938C21.8878 17.8013 22.0451 17.6766 22.0451 17.5216V1.2798C22.0451 1.12473 21.8878 1 21.6938 1ZM21.3425 17.0732H1.70262V1.72815H21.3458V17.0732H21.3425Z" fill="#3EA89A" stroke="#3EA89A" stroke-miterlimit="10" stroke-linejoin="round"/>
<path d="M4.18754 4H3.54553V4.64743H4.18754V4Z" fill="#3EA89A"/>
<path d="M5.4716 4H4.82959V4.64743H5.4716V4Z" fill="#3EA89A"/>
<path d="M6.75248 4H6.11047V4.64743H6.75248V4Z" fill="#3EA89A"/>
<path d="M8.03654 4H7.39453V4.64743H8.03654V4Z" fill="#3EA89A"/>
<path d="M9.3206 4H8.67859V4.64743H9.3206V4Z" fill="#3EA89A"/>
<path d="M10.6014 4H9.95935V4.64743H10.6014V4Z" fill="#3EA89A"/>
<path d="M11.8854 4H11.2434V4.64743H11.8854V4Z" fill="#3EA89A"/>
<path d="M13.1695 4H12.5275V4.64743H13.1695V4Z" fill="#3EA89A"/>
<path d="M14.4504 4H13.8083V4.64743H14.4504V4Z" fill="#3EA89A"/>
<path d="M15.7344 4H15.0924V4.64743H15.7344V4Z" fill="#3EA89A"/>
<path d="M17.0185 4H16.3765V4.64743H17.0185V4Z" fill="#3EA89A"/>
<path d="M18.2994 4H17.6573V4.64743H18.2994V4Z" fill="#3EA89A"/>
<path d="M19.5834 4H18.9414V4.64743H19.5834V4Z" fill="#3EA89A"/>
<path d="M4.18754 6.58969H3.54553V7.23712H4.18754V6.58969Z" fill="#3EA89A"/>
<path d="M5.4716 6.58969H4.82959V7.23712H5.4716V6.58969Z" fill="#3EA89A"/>
<path d="M6.75248 6.58969H6.11047V7.23712H6.75248V6.58969Z" fill="#3EA89A"/>
<path d="M8.03654 6.58969H7.39453V7.23712H8.03654V6.58969Z" fill="#3EA89A"/>
<path d="M9.3206 6.58969H8.67859V7.23712H9.3206V6.58969Z" fill="#3EA89A"/>
<path d="M10.6014 6.58969H9.95935V7.23712H10.6014V6.58969Z" fill="#3EA89A"/>
<path d="M11.8854 6.58969H11.2434V7.23712H11.8854V6.58969Z" fill="#3EA89A"/>
<path d="M13.1695 6.58969H12.5275V7.23712H13.1695V6.58969Z" fill="#3EA89A"/>
<path d="M14.4504 6.58969H13.8083V7.23712H14.4504V6.58969Z" fill="#3EA89A"/>
<path d="M15.7344 6.58969H15.0924V7.23712H15.7344V6.58969Z" fill="#3EA89A"/>
<path d="M17.0185 6.58969H16.3765V7.23712H17.0185V6.58969Z" fill="#3EA89A"/>
<path d="M18.2994 6.58969H17.6573V7.23712H18.2994V6.58969Z" fill="#3EA89A"/>
<path d="M19.5834 6.58969H18.9414V7.23712H19.5834V6.58969Z" fill="#3EA89A"/>
<path d="M4.18754 9.1763H3.54553V9.82373H4.18754V9.1763Z" fill="#3EA89A"/>
<path d="M5.4716 9.1763H4.82959V9.82373H5.4716V9.1763Z" fill="#3EA89A"/>
<path d="M6.75248 9.1763H6.11047V9.82373H6.75248V9.1763Z" fill="#3EA89A"/>
<path d="M8.03654 9.1763H7.39453V9.82373H8.03654V9.1763Z" fill="#3EA89A"/>
<path d="M9.3206 9.1763H8.67859V9.82373H9.3206V9.1763Z" fill="#3EA89A"/>
<path d="M10.6014 9.1763H9.95935V9.82373H10.6014V9.1763Z" fill="#3EA89A"/>
<path d="M11.8854 9.1763H11.2434V9.82373H11.8854V9.1763Z" fill="#3EA89A"/>
<path d="M13.1695 9.1763H12.5275V9.82373H13.1695V9.1763Z" fill="#3EA89A"/>
<path d="M14.4504 9.1763H13.8083V9.82373H14.4504V9.1763Z" fill="#3EA89A"/>
<path d="M15.7344 9.1763H15.0924V9.82373H15.7344V9.1763Z" fill="#3EA89A"/>
<path d="M17.0185 9.1763H16.3765V9.82373H17.0185V9.1763Z" fill="#3EA89A"/>
<path d="M18.2994 9.1763H17.6573V9.82373H18.2994V9.1763Z" fill="#3EA89A"/>
<path d="M19.5834 9.1763H18.9414V9.82373H19.5834V9.1763Z" fill="#3EA89A"/>
<path d="M4.18754 11.7628H3.54553V12.4102H4.18754V11.7628Z" fill="#3EA89A"/>
<path d="M5.4716 11.7628H4.82959V12.4102H5.4716V11.7628Z" fill="#3EA89A"/>
<path d="M6.75248 11.7628H6.11047V12.4102H6.75248V11.7628Z" fill="#3EA89A"/>
<path d="M8.03654 11.7628H7.39453V12.4102H8.03654V11.7628Z" fill="#3EA89A"/>
<path d="M9.3206 11.7628H8.67859V12.4102H9.3206V11.7628Z" fill="#3EA89A"/>
<path d="M10.6014 11.7628H9.95935V12.4102H10.6014V11.7628Z" fill="#3EA89A"/>
<path d="M11.8854 11.7628H11.2434V12.4102H11.8854V11.7628Z" fill="#3EA89A"/>
<path d="M13.1695 11.7628H12.5275V12.4102H13.1695V11.7628Z" fill="#3EA89A"/>
<path d="M14.4504 11.7628H13.8083V12.4102H14.4504V11.7628Z" fill="#3EA89A"/>
<path d="M15.7344 11.7628H15.0924V12.4102H15.7344V11.7628Z" fill="#3EA89A"/>
<path d="M17.0185 11.7628H16.3765V12.4102H17.0185V11.7628Z" fill="#3EA89A"/>
<path d="M18.2994 11.7628H17.6573V12.4102H18.2994V11.7628Z" fill="#3EA89A"/>
<path d="M19.5834 11.7628H18.9414V12.4102H19.5834V11.7628Z" fill="#3EA89A"/>
<path d="M4.18754 13.0577H3.54553V13.7051H4.18754V13.0577Z" fill="#3EA89A"/>
<path d="M5.4716 13.0577H4.82959V13.7051H5.4716V13.0577Z" fill="#3EA89A"/>
<path d="M6.75248 13.0577H6.11047V13.7051H6.75248V13.0577Z" fill="#3EA89A"/>
<path d="M8.03654 13.0577H7.39453V13.7051H8.03654V13.0577Z" fill="#3EA89A"/>
<path d="M9.3206 13.0577H8.67859V13.7051H9.3206V13.0577Z" fill="#3EA89A"/>
<path d="M10.6014 13.0577H9.95935V13.7051H10.6014V13.0577Z" fill="#3EA89A"/>
<path d="M11.8854 13.0577H11.2434V13.7051H11.8854V13.0577Z" fill="#3EA89A"/>
<path d="M13.1695 13.0577H12.5275V13.7051H13.1695V13.0577Z" fill="#3EA89A"/>
<path d="M14.4504 13.0577H13.8083V13.7051H14.4504V13.0577Z" fill="#3EA89A"/>
<path d="M15.7344 13.0577H15.0924V13.7051H15.7344V13.0577Z" fill="#3EA89A"/>
<path d="M17.0185 13.0577H16.3765V13.7051H17.0185V13.0577Z" fill="#3EA89A"/>
<path d="M18.2994 13.0577H17.6573V13.7051H18.2994V13.0577Z" fill="#3EA89A"/>
<path d="M19.5834 13.0577H18.9414V13.7051H19.5834V13.0577Z" fill="#3EA89A"/>
<path d="M4.18754 14.3526H3.54553V15H4.18754V14.3526Z" fill="#3EA89A"/>
<path d="M5.4716 14.3526H4.82959V15H5.4716V14.3526Z" fill="#3EA89A"/>
<path d="M6.75248 14.3526H6.11047V15H6.75248V14.3526Z" fill="#3EA89A"/>
<path d="M8.03654 14.3526H7.39453V15H8.03654V14.3526Z" fill="#3EA89A"/>
<path d="M9.3206 14.3526H8.67859V15H9.3206V14.3526Z" fill="#3EA89A"/>
<path d="M10.6014 14.3526H9.95935V15H10.6014V14.3526Z" fill="#3EA89A"/>
<path d="M11.8854 14.3526H11.2434V15H11.8854V14.3526Z" fill="#3EA89A"/>
<path d="M13.1695 14.3526H12.5275V15H13.1695V14.3526Z" fill="#3EA89A"/>
<path d="M14.4504 14.3526H13.8083V15H14.4504V14.3526Z" fill="#3EA89A"/>
<path d="M15.7344 14.3526H15.0924V15H15.7344V14.3526Z" fill="#3EA89A"/>
<path d="M17.0185 14.3526H16.3765V15H17.0185V14.3526Z" fill="#3EA89A"/>
<path d="M18.2994 14.3526H17.6573V15H18.2994V14.3526Z" fill="#3EA89A"/>
<path d="M19.5834 14.3526H18.9414V15H19.5834V14.3526Z" fill="#3EA89A"/>
</svg>
