<svg width="27" height="21" viewBox="0 0 27 21" fill="none" xmlns="http://www.w3.org/2000/svg">
<path d="M19.5714 13.2706V10.0588C19.5714 9.47647 19.0893 9 18.5 9H8.5C7.91071 9 7.42857 9.47647 7.42857 10.0588V13.2706C6.61607 13.4338 6 14.1485 6 15V17.1176V20.6471C6 20.8412 6.16071 21 6.35714 21H7.78571C7.98214 21 8.14286 20.8412 8.14286 20.6471V19.5882H18.8571V20.6471C18.8571 20.8412 19.0179 21 19.2143 21H20.6429C20.8393 21 21 20.8412 21 20.6471V17.1176V15C21 14.1441 20.3839 13.4338 19.5714 13.2706ZM8.14286 10.0588C8.14286 9.86471 8.30357 9.70588 8.5 9.70588H18.5C18.6964 9.70588 18.8571 9.86471 18.8571 10.0588V13.2353H18.1429V11.8235C18.1429 11.2412 17.6607 10.7647 17.0714 10.7647H14.9286C14.3393 10.7647 13.8571 11.2412 13.8571 11.8235V13.2353H13.1429V11.8235C13.1429 11.2412 12.6607 10.7647 12.0714 10.7647H9.92857C9.33929 10.7647 8.85714 11.2412 8.85714 11.8235V13.2353H8.14286V10.0588ZM17.4286 11.8235V13.2353H14.5714V11.8235C14.5714 11.6294 14.7321 11.4706 14.9286 11.4706H17.0714C17.2679 11.4706 17.4286 11.6294 17.4286 11.8235ZM12.4286 11.8235V13.2353H9.57143V11.8235C9.57143 11.6294 9.73214 11.4706 9.92857 11.4706H12.0714C12.2679 11.4706 12.4286 11.6294 12.4286 11.8235ZM20.2857 20.2941H19.5714V19.2353C19.5714 19.0412 19.4107 18.8824 19.2143 18.8824H7.78571C7.58929 18.8824 7.42857 19.0412 7.42857 19.2353V20.2941H6.71429V17.4706H20.2857V20.2941ZM20.2857 16.7647H6.71429V15C6.71429 14.4176 7.19643 13.9412 7.78571 13.9412H9.21429H12.7857H14.2143H17.7857H19.2143C19.8036 13.9412 20.2857 14.4176 20.2857 15V16.7647Z" fill="#3EA89A"/>
<path d="M19.5714 13.2706V10.0588C19.5714 9.47647 19.0893 9 18.5 9H8.5C7.91071 9 7.42857 9.47647 7.42857 10.0588V13.2706C6.61607 13.4338 6 14.1485 6 15V17.1176V20.6471C6 20.8412 6.16071 21 6.35714 21H7.78571C7.98214 21 8.14286 20.8412 8.14286 20.6471V19.5882H18.8571V20.6471C18.8571 20.8412 19.0179 21 19.2143 21H20.6429C20.8393 21 21 20.8412 21 20.6471V17.1176V15C21 14.1441 20.3839 13.4338 19.5714 13.2706ZM8.14286 10.0588C8.14286 9.86471 8.30357 9.70588 8.5 9.70588H18.5C18.6964 9.70588 18.8571 9.86471 18.8571 10.0588V13.2353H18.1429V11.8235C18.1429 11.2412 17.6607 10.7647 17.0714 10.7647H14.9286C14.3393 10.7647 13.8571 11.2412 13.8571 11.8235V13.2353H13.1429V11.8235C13.1429 11.2412 12.6607 10.7647 12.0714 10.7647H9.92857C9.33929 10.7647 8.85714 11.2412 8.85714 11.8235V13.2353H8.14286V10.0588ZM17.4286 11.8235V13.2353H14.5714V11.8235C14.5714 11.6294 14.7321 11.4706 14.9286 11.4706H17.0714C17.2679 11.4706 17.4286 11.6294 17.4286 11.8235ZM12.4286 11.8235V13.2353H9.57143V11.8235C9.57143 11.6294 9.73214 11.4706 9.92857 11.4706H12.0714C12.2679 11.4706 12.4286 11.6294 12.4286 11.8235ZM20.2857 20.2941H19.5714V19.2353C19.5714 19.0412 19.4107 18.8824 19.2143 18.8824H7.78571C7.58929 18.8824 7.42857 19.0412 7.42857 19.2353V20.2941H6.71429V17.4706H20.2857V20.2941ZM20.2857 16.7647H6.71429V15C6.71429 14.4176 7.19643 13.9412 7.78571 13.9412H9.21429H12.7857H14.2143H17.7857H19.2143C19.8036 13.9412 20.2857 14.4176 20.2857 15V16.7647Z" stroke="#3EA89A"/>
<path d="M25.2904 6.03306L13.9197 1.03246C13.8168 0.989181 13.6991 0.989181 13.6011 1.03246L2.23036 6.03306C2.08822 6.09556 2 6.235 2 6.38406V11H2.78419V6.63409L13.7628 1.80659L24.7415 6.63409V11H25.5257V6.38406C25.5208 6.2302 25.4326 6.09556 25.2904 6.03306Z" fill="#3EA89A" stroke="#3EA89A" stroke-miterlimit="10" stroke-linejoin="round"/>
</svg>
