<svg width="25" height="25" viewBox="0 0 25 25" fill="none" xmlns="http://www.w3.org/2000/svg">
<path d="M16.8526 20.2854L4.71265 8.13831C4.51578 7.94133 4.20174 7.94133 4.00487 8.13831L1.15033 10.9992C0.953469 11.1962 0.953469 11.5104 1.15033 11.7074L13.295 23.8545C13.3888 23.9483 13.5153 23.9999 13.6466 23.9999C13.7778 23.9999 13.9044 23.9483 13.9981 23.8545L16.8526 20.9983C17.0495 20.8013 17.0495 20.4824 16.8526 20.2854ZM13.6419 22.7899L2.20497 11.3463L4.35642 9.19356L15.7933 20.6372L13.6419 22.7899Z" fill="#3EA89A" stroke="#3EA89A"/>
<path d="M4.00009 5.48847C4.00009 5.21176 4.22508 4.98664 4.50163 4.98664H16.501V3.98767H4.50163C3.67199 3.98767 3.00171 4.65834 3.00171 5.48847V9.48904H4.00009V5.48847Z" fill="#3EA89A"/>
<path d="M4.00009 18.4985V13.4943H3.00171V18.4985C3.00171 19.3287 3.67199 19.9993 4.50163 19.9993H9.50293V18.9957H4.50163C4.22508 18.9957 4.00009 18.7752 4.00009 18.4985Z" fill="#3EA89A"/>
<path d="M24.999 20.9983V5.9903C24.999 4.88346 24.1037 3.98767 22.9975 3.98767H20.4992V4.98664H22.9975C23.5506 4.98664 23.9959 5.43688 23.9959 5.98561V19.263C23.7006 19.0942 23.3584 18.9957 22.9975 18.9957H15.4979V19.9946H20.9961V22.4944C20.9961 22.7711 21.2211 22.9962 21.4976 22.9962H22.9975C24.1037 23.0009 24.999 22.1051 24.999 20.9983ZM22.9975 21.9973H21.9991V19.9946H22.9975C23.5506 19.9946 23.9959 20.4449 23.9959 20.9936C24.0006 21.5517 23.5506 21.9973 22.9975 21.9973Z" fill="#3EA89A"/>
<path d="M10.1478 14.1419L8.64636 15.6442L9.35232 16.3506L10.8537 14.8483L10.1478 14.1419Z" fill="#3EA89A"/>
<path d="M8.14886 12.1375L6.64746 13.6398L7.35342 14.3462L8.85482 12.8439L8.14886 12.1375Z" fill="#3EA89A"/>
<path d="M12.1461 16.1389L10.6447 17.6411L11.3506 18.3475L12.852 16.8452L12.1461 16.1389Z" fill="#3EA89A"/>
<path d="M14.1478 18.1409L12.6464 19.6432L13.3523 20.3496L14.8537 18.8473L14.1478 18.1409Z" fill="#3EA89A"/>
<path d="M6.14642 10.1355L4.64502 11.6378L5.35098 12.3442L6.85238 10.8419L6.14642 10.1355Z" fill="#3EA89A"/>
<path d="M22.5663 1.1127L21.8773 0.418583C21.2914 -0.139528 20.368 -0.139528 19.7867 0.418583L12.184 8.02576C11.9872 8.22274 11.9872 8.53697 12.184 8.73395L14.2558 10.8069C14.3495 10.9007 14.4761 10.9523 14.6073 10.9523C14.7386 10.9523 14.8651 10.9007 14.9589 10.8069L22.5663 3.19975C23.1428 2.62288 23.1428 1.68957 22.5663 1.1127ZM21.8585 2.49625L14.612 9.74699L13.2433 8.37751L20.4945 1.12677C20.682 0.948553 20.982 0.948553 21.1695 1.12677L21.8585 1.8162C22.046 2.0038 22.046 2.30865 21.8585 2.49625Z" fill="#3EA89A"/>
<path d="M14.4481 9.9815L12.2919 10.7038L13.0138 8.54167L12.0622 8.22275L11.0264 11.3369C11.0076 11.3885 11.0029 11.4401 11.0029 11.4964C11.0029 11.7731 11.2279 11.9982 11.5045 11.9982C11.556 11.9982 11.6123 11.9888 11.6591 11.9747L14.7715 10.9383L14.4481 9.9815Z" fill="#3EA89A"/>
<path d="M19.1101 1.80321L18.4042 2.50958L20.479 4.58559L21.1849 3.87921L19.1101 1.80321Z" fill="#3EA89A"/>
<path d="M18.9994 10.9945H11.4998V11.9935H18.9994V10.9945Z" fill="#3EA89A"/>
</svg>
