<svg width="14" height="18" viewBox="0 0 14 18" fill="none" xmlns="http://www.w3.org/2000/svg">
<path d="M7 9.73154C8.67279 9.73154 10.0289 8.37548 10.0289 6.70269C10.0289 5.02989 8.67279 3.67383 7 3.67383C5.32721 3.67383 3.97115 5.02989 3.97115 6.70269C3.97115 8.37548 5.32721 9.73154 7 9.73154Z" fill="#263C49"/>
<path d="M7.00001 18C7.00001 18 13.7028 10.4047 13.7028 6.70284C13.7028 3.00098 10.7019 0 7.00001 0C3.29816 0 0.29718 3.00098 0.29718 6.7028C0.29718 10.4046 7.00001 18 7.00001 18ZM7.00001 2.07469C9.55567 2.07469 11.6278 4.14647 11.6278 6.7025C11.6278 9.25853 9.55567 11.3303 7.00001 11.3303C4.44432 11.3303 2.37224 9.25849 2.37224 6.7025C2.37224 4.1465 4.44432 2.07469 7.00001 2.07469Z" fill="#263C49"/>
</svg>
