<svg width="85" height="19" viewBox="0 0 85 19" fill="none" xmlns="http://www.w3.org/2000/svg">
<path d="M28.5444 6.17383H30.1519L33.5129 13.9748H31.7106L30.9799 12.2519H27.6189L26.8883 13.9748H25.1347L28.5444 6.17383ZM30.3467 10.7204L29.2751 8.1839L28.2522 10.7204H30.3467Z" fill="#929BA8"/>
<path d="M37.7994 7.80102H35.4126V6.22168H41.9398V7.80102H39.553V13.9748H37.7994V7.80102Z" fill="#929BA8"/>
<path d="M45.5444 6.22168H47.298V9.28465H50.5129V6.22168H52.2665V13.9748H50.5129V10.864H47.298V13.9748H45.5444V6.22168Z" fill="#929BA8"/>
<path d="M56.3582 6.22168H62.3008V7.75317H58.063V9.33251H61.765V10.864H58.063V12.4433H62.3496V13.9748H56.3582V6.22168Z" fill="#929BA8"/>
<path d="M66.1977 6.22168H67.8052L71.5072 11.0076V6.22168H73.2121V13.9748H71.7507L67.9513 9.04536V13.9748H66.2464V6.22168H66.1977Z" fill="#929BA8"/>
<path d="M80.0315 6.17383H81.639L85 13.9748H83.1977L82.467 12.2519H79.106L78.3753 13.9748H76.6218L80.0315 6.17383ZM81.8825 10.7204L80.8109 8.1839L79.7392 10.7204H81.8825Z" fill="#929BA8"/>
<path d="M19.2407 14.9798C18.9484 12.539 18.51 8.47103 18.0716 6.50882C17.6819 4.49874 16.5129 0 13.1519 0C9.98567 0 7.06304 2.44081 4.91977 7.03526C4.53009 7.84887 4.09169 8.90176 3.60458 10.0982L9.44986 7.75315L7.7937 6.46096L16.0258 5.12091L10.6676 11.5819L10.5215 9.57179L4.23782 13.4484C2.48424 14.4534 1.16905 16.0327 0.438395 17.8992C0.146132 18.6171 0 19 0 19H4.96848C4.96848 19 7.93983 13.5441 10.9112 13.1612C13.1519 12.8741 14.7106 13.7355 15.8797 15.5063C16.3668 16.272 16.8052 16.7985 17.9255 16.7985C19.192 16.7985 19.2894 15.6499 19.2407 14.9798Z" fill="#929BA8"/>
</svg>
