<svg width="13" height="11" viewBox="0 0 13 11" fill="none" xmlns="http://www.w3.org/2000/svg">
<path d="M11.8392 10.607C12.1314 10.607 12.3846 10.5105 12.5999 10.32L8.91676 6.63673C8.8284 6.70001 8.74275 6.76154 8.66184 6.82005C8.38621 7.02313 8.16251 7.18159 7.99073 7.29514C7.81898 7.40895 7.59046 7.52495 7.3052 7.64339C7.01976 7.76197 6.75383 7.82107 6.50714 7.82107H6.49992H6.4927C6.24598 7.82107 5.98005 7.76199 5.69463 7.64339C5.40921 7.52495 5.18069 7.40895 5.00911 7.29514C4.83735 7.18159 4.61377 7.02315 4.338 6.82005C4.26115 6.76371 4.17592 6.7019 4.08378 6.63574L0.399963 10.32C0.615192 10.5105 0.868562 10.607 1.16076 10.607H11.8392Z" fill="#263C49"/>
<path d="M0.732779 4.31725C0.457176 4.13351 0.212774 3.92307 0 3.68604V9.2898L3.24628 6.04352C2.59684 5.59012 1.76007 5.01536 0.732779 4.31725Z" fill="#263C49"/>
<path d="M12.2746 4.31725C11.2865 4.98605 10.4466 5.5618 9.75502 6.04482L13 9.28994V3.68604C12.7919 3.9183 12.5502 4.1286 12.2746 4.31725Z" fill="#263C49"/>
<path d="M11.8396 0.392578H1.16119C0.788652 0.392578 0.502239 0.518378 0.301596 0.769718C0.100788 1.02118 0.000549316 1.33565 0.000549316 1.71279C0.000549316 2.01743 0.133572 2.34751 0.399498 2.70312C0.665425 3.05859 0.948392 3.33781 1.24826 3.54091C1.41265 3.65705 1.90839 4.00169 2.73548 4.57471C3.18197 4.88411 3.57025 5.15379 3.90391 5.38651C4.18832 5.58467 4.4336 5.75628 4.6361 5.8987C4.65935 5.91501 4.69591 5.94116 4.74444 5.97586C4.79672 6.01341 4.86287 6.06106 4.94449 6.12C5.10166 6.23366 5.23222 6.32555 5.33622 6.39574C5.44007 6.46596 5.56589 6.54439 5.7135 6.63148C5.86099 6.71845 6.0001 6.78386 6.13067 6.82735C6.26126 6.87083 6.38215 6.89264 6.49336 6.89264H6.50059H6.50781C6.619 6.89264 6.73991 6.87083 6.87053 6.82735C7.00107 6.78386 7.14007 6.7186 7.28767 6.63148C7.43514 6.54439 7.5608 6.46579 7.66498 6.39574C7.76897 6.32555 7.89954 6.23369 8.05673 6.12C8.13818 6.06106 8.20434 6.01338 8.25662 5.97597C8.30517 5.94114 8.3417 5.91515 8.36509 5.8987C8.52285 5.78893 8.76869 5.61802 9.09922 5.38851C9.70065 4.97064 10.5864 4.35559 11.7602 3.54091C12.1132 3.29433 12.4081 2.99678 12.6452 2.64867C12.8818 2.30056 13.0004 1.93541 13.0004 1.55334C13.0004 1.23412 12.8854 0.960968 12.6559 0.733465C12.4261 0.506247 12.154 0.392578 11.8396 0.392578Z" fill="#263C49"/>
</svg>
