<svg width="530" height="589" viewBox="0 0 530 589" fill="none" xmlns="http://www.w3.org/2000/svg">
<g style="mix-blend-mode:screen">
<path d="M203 543L224 589H304L346 570L398 562L422 536L438 521L447 489L482 461L492 427L499 384V352L512 337L530 289L512 270H492L480 236L438 215L414 195L422 156L398 86H363L346 79L331 37L304 43L288 32L245 0L234 9L224 32L214 37L178 43V79L170 98L142 79L105 105H95L53 127L105 184L60 174L46 181L38.5 199.5L21 203L12 209L17 228L0 242L12 261.5L33 289L36 319H24.5L33 338L50.5 355L67 371L40.5 395L45 430L67 445.5L96 456L99.5 500.5L146 543L185 536L203 543Z" fill="#3EA89A" fill-opacity="0.35"/>
</g>
</svg>
