<svg width="14" height="13" viewBox="0 0 14 13" fill="none" xmlns="http://www.w3.org/2000/svg">
<path d="M0.882324 3.80697C0.882324 1.50122 2.15676 0.645502 3.10271 0.429243C3.41141 0.35867 3.71252 0.519644 3.90114 0.773998L5.12965 2.43061C5.42358 2.82698 5.38445 3.37849 5.0375 3.72938L4.10266 4.67484C3.80264 4.97826 3.72987 5.43761 3.95592 5.79951C4.28643 6.32864 4.84796 7.1302 5.64052 7.93175C6.42488 8.72503 7.20925 9.28946 7.73251 9.62505C8.09799 9.85944 8.56644 9.78484 8.87171 9.4761L9.78205 8.55541C10.1349 8.19854 10.6976 8.15849 11.0975 8.46178L12.722 9.69402C12.9713 9.88308 13.1282 10.1809 13.0614 10.4865C12.8519 11.4444 12.0082 12.744 9.71897 12.744C7 12.744 4.96077 10.6816 3.94116 9.65041C2.92155 8.61921 0.882324 6.55683 0.882324 3.80697Z" fill="white"/>
</svg>
